<?xml version="1.0" encoding="UTF-8"?>
<!-- Created with Inkscape (http://www.inkscape.org/) -->
<svg width="100" height="100" version="1.1" viewBox="0 0 26.458 26.458" xmlns="http://www.w3.org/2000/svg">
 <g transform="translate(-24.793 -16.473)">
  <path d="m36.491 16.473c-0.61442 0-1.1091 0.51803-1.1091 1.1617v2.73c0 0.75896-1.5608 1.4025-2.0975 0.86582l-1.9286-1.9286c-0.45515-0.45514-1.1711-0.47166-1.6055-0.03722l-2.1655 2.1655c-0.43446 0.43445-0.41794 1.1504 0.03722 1.6055l1.9286 1.9286c0.53668 0.53666-0.10687 2.0974-0.86585 2.0974h-2.7301c-0.64368 0-1.1617 0.49464-1.1617 1.109v3.063c0 0.6144 0.51805 1.109 1.1617 1.109h2.7301c0.7587 0 1.4023 1.56 0.86585 2.0965l-1.9286 1.9286c-0.45515 0.45514-0.47168 1.171-0.03722 1.6055l2.1655 2.1655c0.43446 0.43445 1.1504 0.41793 1.6055-0.03721l1.9286-1.9286c0.53668-0.53666 2.0975 0.10687 2.0975 0.86582v2.73c0 0.64366 0.49466 1.1626 1.1091 1.1626h3.0631c0.61442 0 1.1082-0.51894 1.1082-1.1626v-2.73c0-0.75896 1.5608-1.4025 2.0975-0.86582l1.9286 1.9286c0.45515 0.45514 1.1711 0.47166 1.6055 0.03721l2.1655-2.1655c0.43446-0.43445 0.41794-1.1504-0.03722-1.6055l-1.9286-1.9286c-0.53648-0.53646 0.10715-2.0965 0.86585-2.0965h2.7301c0.64368 0 1.1617-0.49464 1.1617-1.109v-3.063c-4e-6 -0.6144-0.51805-1.109-1.1617-1.109h-2.7246c-0.76002 0-1.4069-1.5618-0.86948-2.0992l1.9268-1.9268c0.45515-0.45514 0.47168-1.171 0.03722-1.6055l-2.1655-2.1655c-0.43446-0.43445-1.1504-0.41792-1.6055 0.03722l-1.9268 1.9268c-0.53741 0.5374-2.0993-0.10947-2.0993-0.86945v-2.7245c0-0.64366-0.49376-1.1617-1.1082-1.1617zm6.4426 13.229a4.9115 4.9114 0 0 1-4.9115 4.9114 4.9115 4.9114 0 0 1-4.9115-4.9114 4.9115 4.9114 0 0 1 4.9115-4.9114 4.9115 4.9114 0 0 1 4.9115 4.9114z" stroke-miterlimit="2" stroke-width="0"/>
 </g>
</svg>
