<?xml version="1.0" encoding="UTF-8"?>
<!-- Created with Inkscape (http://www.inkscape.org/) -->
<svg width="100" height="100" version="1.1" viewBox="0 0 26.458 26.458" xmlns="http://www.w3.org/2000/svg">
 <g transform="translate(-24.793 -16.473)" stroke-miterlimit="2" stroke-width="0">
  <path d="m45.753 46.904c-0.61442 0-1.1091 0.51803-1.1091 1.1617v2.73c0 0.75896-1.5608 1.4025-2.0975 0.86582l-1.9286-1.9286c-0.45515-0.45514-1.1711-0.47166-1.6055-0.03722l-2.1655 2.1655c-0.43446 0.43445-0.41794 1.1504 0.03722 1.6055l1.9286 1.9286c0.53668 0.53666-0.10687 2.0974-0.86585 2.0974h-2.7301c-0.64368 0-1.1617 0.49464-1.1617 1.109v3.063c0 0.6144 0.51805 1.109 1.1617 1.109h2.7301c0.7587 0 1.4023 1.56 0.86585 2.0965l-1.9286 1.9286c-0.45515 0.45514-0.47168 1.171-0.03722 1.6055l2.1655 2.1655c0.43446 0.43445 1.1504 0.41793 1.6055-0.03721l1.9286-1.9286c0.53668-0.53666 2.0975 0.10687 2.0975 0.86582v2.73c0 0.64366 0.49466 1.1626 1.1091 1.1626h3.0631c0.61442 0 1.1082-0.51894 1.1082-1.1626v-2.73c0-0.75896 1.5608-1.4025 2.0975-0.86582l1.9286 1.9286c0.45515 0.45514 1.1711 0.47166 1.6055 0.03721l2.1655-2.1655c0.43446-0.43445 0.41794-1.1504-0.03722-1.6055l-1.9286-1.9286c-0.53648-0.53646 0.10715-2.0965 0.86585-2.0965h2.7301c0.64368 0 1.1617-0.49464 1.1617-1.109v-3.063c-4e-6 -0.6144-0.51805-1.109-1.1617-1.109h-2.7246c-0.76002 0-1.4069-1.5618-0.86948-2.0992l1.9268-1.9268c0.45515-0.45514 0.47168-1.171 0.03722-1.6055l-2.1655-2.1655c-0.43446-0.43445-1.1504-0.41792-1.6055 0.03722l-1.9268 1.9268c-0.53741 0.5374-2.0993-0.10947-2.0993-0.86945v-2.7245c0-0.64366-0.49376-1.1617-1.1082-1.1617zm6.4426 13.229a4.9115 4.9114 0 0 1-4.9115 4.9114 4.9115 4.9114 0 0 1-4.9115-4.9114 4.9115 4.9114 0 0 1 4.9115-4.9114 4.9115 4.9114 0 0 1 4.9115 4.9114z"/>
  <path d="m38.022 16.473a13.229 13.229 0 0 0-13.229 13.229 13.229 13.229 0 0 0 13.229 13.229 13.229 13.229 0 0 0 13.229-13.229 13.229 13.229 0 0 0-13.229-13.229zm0.24468 3.4377c1.9224 0 3.4748 0.39801 4.6565 1.1948 1.605 1.077 2.4075 2.5133 2.4075 4.3084 0 0.74429-0.20742 1.4624-0.62189 2.1542s-1.2609 1.5367-2.5396 2.535c-0.89067 0.70051-1.4553 1.2653-1.6934 1.6944-0.22928 0.42031-0.34408 0.97164-0.34408 1.6546h-5.0266v-0.49904c0-0.84937 0.09706-1.5365 0.29106-2.0619 0.19401-0.53414 0.48075-1.0201 0.85994-1.4579 0.38802-0.43782 1.2522-1.2084 2.5926-2.3117 0.7143-0.57792 1.0715-1.1078 1.0715-1.5894 0-0.4816-0.14533-0.85365-0.43634-1.1163-0.28219-0.27145-0.71426-0.40729-1.2963-0.40729-0.62612 0-1.1464 0.20575-1.5608 0.6173-0.40565 0.41155-0.66578 1.1297-0.78042 2.1542l-5.1326-0.63056c0.17637-1.8739 0.8597-3.3801 2.0502-4.5184 1.1993-1.1471 3.0335-1.7204 5.5027-1.7204zm-3.3332 14.868h5.3839v4.7151h-5.3839z"/>
 </g>
</svg>
